<?xml version="1.0" encoding="iso-8859-1"?>
<!-- Generator: Adobe Illustrator 19.0.0, SVG Export Plug-In . SVG Version: 6.00 Build 0)  -->
<svg version="1.1" id="Capa_1" xmlns="http://www.w3.org/2000/svg" xmlns:xlink="http://www.w3.org/1999/xlink" x="0px" y="0px"
	 viewBox="0 0 512 512" style="enable-background:new 0 0 512 512;" xml:space="preserve">
<g>
	<g>
		<path d="M482.071,397.17l-69.554-69.554V208.142l55.411,55.412c1.953,1.953,4.512,2.929,7.071,2.929s5.118-0.976,7.071-2.929
			c3.905-3.905,3.905-10.237,0-14.142l-58.614-58.614c28.4-8.923,49.06-35.491,49.06-66.798c0-35.202-26.124-64.406-60-69.274V30
			c0-16.542-13.458-30-30-30h-184h-20h-20c-5.522,0-10,4.477-10,10v434H85c-31.981,0-58,26.019-58,58c0,5.522,4.478,10,10,10
			h283.034c5.522,0,10-4.478,10-10c0-31.981-26.019-58-58-58h-63.517V210c0-5.523-4.478-10-10-10c-5.522,0-10,4.477-10,10v234h-20
			V20h10h10v102c0,5.523,4.478,10,10,10c5.522,0,10-4.477,10-10V20h174c5.514,0,10,4.486,10,10v24.726
			c-33.876,4.869-60,34.072-60,69.274c0,31.306,20.66,57.875,49.06,66.798l-58.614,58.614c-3.905,3.905-3.905,10.237,0,14.142
			c3.905,3.906,10.235,3.908,14.143,0l55.412-55.412v119.474l-69.555,69.554c-3.905,3.905-3.905,10.237,0,14.143
			c3.905,3.904,10.235,3.905,14.143,0l65.412-65.411l65.411,65.411c1.953,1.952,4.512,2.929,7.071,2.929s5.118-0.977,7.071-2.929
			C485.976,407.408,485.976,401.076,482.071,397.17z M198.517,464h73.517c17.494,0,32.265,11.882,36.665,28H48.335
			c4.4-16.118,19.171-28,36.665-28h73.518H198.517z M402.517,174c-27.57,0-50-22.43-50-50s22.43-50,50-50s50,22.43,50,50
			S430.087,174,402.517,174z"/>
	</g>
</g>
<g>
	<g>
		<path d="M205.589,158.93c-1.86-1.86-4.44-2.93-7.07-2.93s-5.21,1.07-7.069,2.93c-1.86,1.86-2.931,4.44-2.931,7.07
			s1.07,5.21,2.931,7.07c1.859,1.86,4.439,2.93,7.069,2.93s5.21-1.07,7.07-2.93c1.86-1.86,2.93-4.44,2.93-7.07
			S207.45,160.79,205.589,158.93z"/>
	</g>
</g>
<g>
	<g>
		<path d="M422.316,134.428c-10.919-10.918-28.682-10.916-39.599,0c-3.905,3.905-3.905,10.237,0,14.143
			c3.906,3.905,10.236,3.905,14.143,0c3.119-3.119,8.194-3.12,11.313,0c1.954,1.953,4.512,2.929,7.072,2.929
			s5.118-0.976,7.071-2.929C426.221,144.666,426.221,138.334,422.316,134.428z"/>
	</g>
</g>
<g>
</g>
<g>
</g>
<g>
</g>
<g>
</g>
<g>
</g>
<g>
</g>
<g>
</g>
<g>
</g>
<g>
</g>
<g>
</g>
<g>
</g>
<g>
</g>
<g>
</g>
<g>
</g>
<g>
</g>
</svg>
