<?xml version="1.0" encoding="iso-8859-1"?>
<!-- Generator: Adobe Illustrator 16.0.0, SVG Export Plug-In . SVG Version: 6.00 Build 0)  -->
<!DOCTYPE svg PUBLIC "-//W3C//DTD SVG 1.1//EN" "http://www.w3.org/Graphics/SVG/1.1/DTD/svg11.dtd">
<svg version="1.1" id="Capa_1" xmlns="http://www.w3.org/2000/svg" xmlns:xlink="http://www.w3.org/1999/xlink" x="0px" y="0px"
	 width="122.334px" height="122.334px" viewBox="0 0 122.334 122.334" style="enable-background:new 0 0 122.334 122.334;"
	 xml:space="preserve">
<g>
	<g>
		<circle cx="61.653" cy="38.026" r="7.305"/>
		<path d="M59.236,67.312c0.174,2.588,1.479,4.895,3.542,6.142c-1.866,7.362-2.036,15.563-0.358,22.989
			c0.389,1.722,1.916,2.89,3.608,2.89c0.271,0,0.545-0.03,0.819-0.092c1.995-0.45,3.248-2.433,2.798-4.429
			c-1.582-7.006-1.188-15.094,0.974-21.836c1.787-1.312,3.019-3.375,2.864-5.664c-0.308-4.578-0.856-9.127-1.426-13.679
			c-0.479-3.853-2.876-7.125-7.123-7.125c-1.604,0-3.326,0.685-4.681,1.791c-4.396-1.224-8.642-3.604-9.675-8.15
			c0.023-0.339,0.035-0.693,0.023-1.079c-0.08-3.08-1.566-5.32-3.004-7.486c-1.449-2.185-2.818-4.248-2.781-7.099l-0.066-0.001
			v-0.781l-0.771,0.771l-0.227-0.003c-0.001,0.077-0.001,0.152,0,0.228l-0.658-0.194l1.656-1.657v-1.603l-1.813,1.813v1.4
			l-0.102-0.03c-0.429,1.458-1.314,2.261-2.251,3.11c-0.826,0.749-1.68,1.523-2.252,2.752c-1.759,3.668-1.174,9.352,1.254,12.167
			c1.527,1.729,3.734,2.762,5.762,2.851c2.49,4.73,7.215,7.829,12.598,9.434C58.466,58.923,58.954,63.105,59.236,67.312z
			 M43.521,38.634c0.129,2.042,0.587,3.892,1.304,5.561c-1.582-0.231-3.259-1.107-4.435-2.437
			c-2.144-2.485-2.665-7.731-1.093-11.011c0.484-1.041,1.223-1.71,2.004-2.419c0.936-0.847,1.896-1.725,2.44-3.246h0.025
			c0.146,2.869,1.567,5.013,2.945,7.091c0.827,1.247,1.62,2.457,2.157,3.798C46.794,34.591,43.32,35.469,43.521,38.634z"/>
		<polygon points="44.752,19.2 42.939,21.014 42.939,22.204 44.752,20.39 		"/>
		<polygon points="44.752,17.628 44.248,17.628 44.248,0 43.442,0 43.442,17.628 42.939,17.628 42.939,20.159 44.752,18.346 		"/>
		<path d="M82.293,72.46c-0.264,0.572-6.012,13.286-6.796,26.874H52.488v23h3v-9.25h19.917v9.25h3v-20
			c0-13.991,6.549-28.48,6.614-28.626L82.293,72.46z M75.405,110.084H55.488v-7.75h19.917V110.084z"/>
	</g>
</g>
<g>
</g>
<g>
</g>
<g>
</g>
<g>
</g>
<g>
</g>
<g>
</g>
<g>
</g>
<g>
</g>
<g>
</g>
<g>
</g>
<g>
</g>
<g>
</g>
<g>
</g>
<g>
</g>
<g>
</g>
</svg>
